<svg width="150" height="41" viewBox="0 0 150 41" fill="none" xmlns="http://www.w3.org/2000/svg">
<path d="M1 15V1H3V7H9V1H11V15H9V9H3V15H1ZM20.76 13V12H21.76V11H20.76V10H17.76V11H16.76V12H17.76V13H20.76ZM16.76 15V14H15.76V13H14.76V10H15.76V9H16.76V8H20.76V9H21.76V7H20.76V6H16.76V4H21.76V5H22.76V6H23.76V13H24.76V15H22.76V14H21.76V15H16.76ZM28.52 15V13H29.52V6H30.52V5H31.52V4H38.52V15H36.52V6H32.52V7H31.52V14H30.52V15H28.52ZM43.28 15V14H42.28V4H44.28V13H47.28V12H48.28V11H49.28V10H50.28V4H52.28V15H50.28V13H49.28V14H48.28V15H43.28ZM64.04 15V12H58.04V11H57.04V10H56.04V4H58.04V9H59.04V10H64.04V4H66.04V15H64.04ZM69.8 15V4H71.8V8H77.8V4H79.8V15H77.8V10H71.8V15H69.8ZM89.56 13V12H90.56V11H89.56V10H86.56V11H85.56V12H86.56V13H89.56ZM85.56 15V14H84.56V13H83.56V10H84.56V9H85.56V8H89.56V9H90.56V7H89.56V6H85.56V4H90.56V5H91.56V6H92.56V13H93.56V15H91.56V14H90.56V15H85.56ZM105.32 9V6H100.32V7H99.32V8H100.32V9H105.32ZM97.32 15V14H98.32V13H99.32V12H100.32V11H99.32V10H98.32V9H97.32V6H98.32V5H99.32V4H107.32V15H105.32V11H103.32V12H102.32V13H101.32V14H100.32V15H97.32ZM126.84 15V14H125.84V13H124.84V11H126.84V12H127.84V13H131.84V12H132.84V9H131.84V8H124.84V1H134.84V3H126.84V6H132.84V7H133.84V8H134.84V13H133.84V14H132.84V15H126.84ZM140.6 15V14H139.6V13H138.6V11H140.6V12H141.6V13H145.6V12H146.6V9H145.6V8H138.6V1H148.6V3H140.6V6H146.6V7H147.6V8H148.6V13H147.6V14H146.6V15H140.6Z" fill="black"/>
<path d="M4.41 37.225C3.595 37.225 2.905 37.0425 2.34 36.6775C1.775 36.3125 1.345 35.81 1.05 35.17C0.76 34.525 0.61 33.785 0.6 32.95C0.61 32.1 0.765 31.355 1.065 30.715C1.365 30.07 1.7975 29.57 2.3625 29.215C2.9275 28.855 3.6125 28.675 4.4175 28.675C5.2375 28.675 5.95 28.875 6.555 29.275C7.165 29.675 7.5825 30.2225 7.8075 30.9175L6.7275 31.2625C6.5375 30.7775 6.235 30.4025 5.82 30.1375C5.41 29.8675 4.94 29.7325 4.41 29.7325C3.815 29.7325 3.3225 29.87 2.9325 30.145C2.5425 30.415 2.2525 30.7925 2.0625 31.2775C1.8725 31.7625 1.775 32.32 1.77 32.95C1.78 33.92 2.005 34.7 2.445 35.29C2.885 35.875 3.54 36.1675 4.41 36.1675C4.96 36.1675 5.4275 36.0425 5.8125 35.7925C6.2025 35.5375 6.4975 35.1675 6.6975 34.6825L7.8075 35.0125C7.5075 35.7325 7.0675 36.2825 6.4875 36.6625C5.9075 37.0375 5.215 37.225 4.41 37.225ZM14.5832 37.225C13.7932 37.225 13.1082 37.05 12.5282 36.7C11.9532 36.35 11.5057 35.8575 11.1857 35.2225C10.8657 34.5875 10.7057 33.8425 10.7057 32.9875C10.7057 32.1025 10.8632 31.3375 11.1782 30.6925C11.4932 30.0475 11.9357 29.55 12.5057 29.2C13.0807 28.85 13.7582 28.675 14.5382 28.675C15.3382 28.675 16.0207 28.86 16.5857 29.23C17.1507 29.595 17.5782 30.12 17.8682 30.805C18.1582 31.49 18.2907 32.3075 18.2657 33.2575H17.1407V32.8675C17.1207 31.8175 16.8932 31.025 16.4582 30.49C16.0282 29.955 15.3982 29.6875 14.5682 29.6875C13.6982 29.6875 13.0307 29.97 12.5657 30.535C12.1057 31.1 11.8757 31.905 11.8757 32.95C11.8757 33.97 12.1057 34.7625 12.5657 35.3275C13.0307 35.8875 13.6882 36.1675 14.5382 36.1675C15.1182 36.1675 15.6232 36.035 16.0532 35.77C16.4882 35.5 16.8307 35.1125 17.0807 34.6075L18.1082 35.005C17.7882 35.71 17.3157 36.2575 16.6907 36.6475C16.0707 37.0325 15.3682 37.225 14.5832 37.225ZM11.4857 33.2575V32.335H17.6732V33.2575H11.4857ZM25.3676 37.225C24.6226 37.225 23.9926 37.0375 23.4776 36.6625C22.9626 36.2825 22.5726 35.77 22.3076 35.125C22.0426 34.475 21.9101 33.7475 21.9101 32.9425C21.9101 32.1225 22.0426 31.3925 22.3076 30.7525C22.5776 30.1075 22.9726 29.6 23.4926 29.23C24.0126 28.86 24.6526 28.675 25.4126 28.675C26.1526 28.675 26.7876 28.8625 27.3176 29.2375C27.8476 29.6125 28.2526 30.1225 28.5326 30.7675C28.8176 31.4125 28.9601 32.1375 28.9601 32.9425C28.9601 33.7525 28.8176 34.48 28.5326 35.125C28.2476 35.77 27.8376 36.2825 27.3026 36.6625C26.7676 37.0375 26.1226 37.225 25.3676 37.225ZM21.7226 40.6V28.9H22.7126V34.9975H22.8326V40.6H21.7226ZM25.2551 36.1975C25.8201 36.1975 26.2901 36.055 26.6651 35.77C27.0401 35.485 27.3201 35.0975 27.5051 34.6075C27.6951 34.1125 27.7901 33.5575 27.7901 32.9425C27.7901 32.3325 27.6976 31.7825 27.5126 31.2925C27.3276 30.8025 27.0451 30.415 26.6651 30.13C26.2901 29.845 25.8126 29.7025 25.2326 29.7025C24.6676 29.7025 24.1976 29.84 23.8226 30.115C23.4526 30.39 23.1751 30.7725 22.9901 31.2625C22.8051 31.7475 22.7126 32.3075 22.7126 32.9425C22.7126 33.5675 22.8051 34.1275 22.9901 34.6225C23.1751 35.1125 23.4551 35.4975 23.8301 35.7775C24.2051 36.0575 24.6801 36.1975 25.2551 36.1975ZM32.3995 37V28.9H35.737C35.907 28.9 36.112 28.91 36.352 28.93C36.597 28.95 36.8245 28.9875 37.0345 29.0425C37.4895 29.1625 37.8545 29.4075 38.1295 29.7775C38.4095 30.1475 38.5495 30.5925 38.5495 31.1125C38.5495 31.4025 38.5045 31.6625 38.4145 31.8925C38.3295 32.1175 38.207 32.3125 38.047 32.4775C37.972 32.5625 37.8895 32.6375 37.7995 32.7025C37.7095 32.7625 37.622 32.8125 37.537 32.8525C37.697 32.8825 37.8695 32.9525 38.0545 33.0625C38.3445 33.2325 38.5645 33.4625 38.7145 33.7525C38.8645 34.0375 38.9395 34.385 38.9395 34.795C38.9395 35.35 38.807 35.8025 38.542 36.1525C38.277 36.5025 37.922 36.7425 37.477 36.8725C37.277 36.9275 37.0595 36.9625 36.8245 36.9775C36.5945 36.9925 36.377 37 36.172 37H32.3995ZM33.5095 36.0625H36.1195C36.2245 36.0625 36.357 36.055 36.517 36.04C36.677 36.02 36.8195 35.995 36.9445 35.965C37.2395 35.89 37.4545 35.74 37.5895 35.515C37.7295 35.285 37.7995 35.035 37.7995 34.765C37.7995 34.41 37.6945 34.12 37.4845 33.895C37.2795 33.665 37.0045 33.525 36.6595 33.475C36.5445 33.45 36.4245 33.435 36.2995 33.43C36.1745 33.425 36.062 33.4225 35.962 33.4225H33.5095V36.0625ZM33.5095 32.4775H35.7745C35.9045 32.4775 36.0495 32.47 36.2095 32.455C36.3745 32.435 36.517 32.4025 36.637 32.3575C36.897 32.2675 37.087 32.1125 37.207 31.8925C37.332 31.6725 37.3945 31.4325 37.3945 31.1725C37.3945 30.8875 37.327 30.6375 37.192 30.4225C37.062 30.2075 36.8645 30.0575 36.5995 29.9725C36.4195 29.9075 36.2245 29.87 36.0145 29.86C35.8095 29.85 35.6795 29.845 35.6245 29.845H33.5095V32.4775ZM48.6694 28.9V37H47.5969V30.6925L43.1569 37H42.2269V28.9H43.2994V35.155L47.7469 28.9H48.6694ZM55.9344 37.225C55.1194 37.225 54.4294 37.0425 53.8644 36.6775C53.2994 36.3125 52.8694 35.81 52.5744 35.17C52.2844 34.525 52.1344 33.785 52.1244 32.95C52.1344 32.1 52.2894 31.355 52.5894 30.715C52.8894 30.07 53.3219 29.57 53.8869 29.215C54.4519 28.855 55.1369 28.675 55.9419 28.675C56.7619 28.675 57.4744 28.875 58.0794 29.275C58.6894 29.675 59.1069 30.2225 59.3319 30.9175L58.2519 31.2625C58.0619 30.7775 57.7594 30.4025 57.3444 30.1375C56.9344 29.8675 56.4644 29.7325 55.9344 29.7325C55.3394 29.7325 54.8469 29.87 54.4569 30.145C54.0669 30.415 53.7769 30.7925 53.5869 31.2775C53.3969 31.7625 53.2994 32.32 53.2944 32.95C53.3044 33.92 53.5294 34.7 53.9694 35.29C54.4094 35.875 55.0644 36.1675 55.9344 36.1675C56.4844 36.1675 56.9519 36.0425 57.3369 35.7925C57.7269 35.5375 58.0219 35.1675 58.2219 34.6825L59.3319 35.0125C59.0319 35.7325 58.5919 36.2825 58.0119 36.6625C57.4319 37.0375 56.7394 37.225 55.9344 37.225ZM62.6726 37V28.9H63.7751V32.4175H68.3426V28.9H69.4451V37H68.3426V33.475H63.7751V37H62.6726ZM73.3499 37L73.3349 28.9H74.4449V31.9525H75.8549C76.0899 31.9525 76.3199 31.9575 76.5449 31.9675C76.7699 31.9775 76.9724 31.9975 77.1524 32.0275C77.5524 32.1075 77.9074 32.2425 78.2174 32.4325C78.5274 32.6225 78.7724 32.885 78.9524 33.22C79.1324 33.55 79.2224 33.9675 79.2224 34.4725C79.2224 35.1675 79.0424 35.715 78.6824 36.115C78.3224 36.515 77.8699 36.775 77.3249 36.895C77.1199 36.94 76.8974 36.97 76.6574 36.985C76.4174 36.995 76.1824 37 75.9524 37H73.3499ZM74.4449 36.055H75.9074C76.0724 36.055 76.2599 36.05 76.4699 36.04C76.6799 36.03 76.8649 36.0025 77.0249 35.9575C77.2949 35.8825 77.5374 35.7325 77.7524 35.5075C77.9724 35.2775 78.0824 34.9325 78.0824 34.4725C78.0824 34.0175 77.9774 33.675 77.7674 33.445C77.5574 33.21 77.2774 33.055 76.9274 32.98C76.7674 32.945 76.5974 32.9225 76.4174 32.9125C76.2424 32.9025 76.0724 32.8975 75.9074 32.8975H74.4449V36.055ZM80.1899 37V28.9H81.2924V37H80.1899ZM88.5512 27.94C88.1962 27.94 87.8712 27.8525 87.5762 27.6775C87.2812 27.5025 87.0462 27.27 86.8712 26.98C86.7012 26.685 86.6162 26.36 86.6162 26.005H87.5312C87.5312 26.285 87.6312 26.525 87.8312 26.725C88.0312 26.925 88.2712 27.025 88.5512 27.025C88.8362 27.025 89.0762 26.925 89.2712 26.725C89.4712 26.525 89.5712 26.285 89.5712 26.005H90.4862C90.4862 26.36 90.3987 26.685 90.2237 26.98C90.0537 27.27 89.8212 27.5025 89.5262 27.6775C89.2312 27.8525 88.9062 27.94 88.5512 27.94ZM91.6262 28.9V37H90.5537V30.6925L86.1137 37H85.1837V28.9H86.2562V35.155L90.7037 28.9H91.6262ZM107.294 38.4025V37H100.327V28.9H101.429V35.9425H105.667V28.9H106.769V35.98H108.397V38.4025H107.294ZM114.819 37.225C114.029 37.225 113.344 37.05 112.764 36.7C112.189 36.35 111.742 35.8575 111.422 35.2225C111.102 34.5875 110.942 33.8425 110.942 32.9875C110.942 32.1025 111.099 31.3375 111.414 30.6925C111.729 30.0475 112.172 29.55 112.742 29.2C113.317 28.85 113.994 28.675 114.774 28.675C115.574 28.675 116.257 28.86 116.822 29.23C117.387 29.595 117.814 30.12 118.104 30.805C118.394 31.49 118.527 32.3075 118.502 33.2575H117.377V32.8675C117.357 31.8175 117.129 31.025 116.694 30.49C116.264 29.955 115.634 29.6875 114.804 29.6875C113.934 29.6875 113.267 29.97 112.802 30.535C112.342 31.1 112.112 31.905 112.112 32.95C112.112 33.97 112.342 34.7625 112.802 35.3275C113.267 35.8875 113.924 36.1675 114.774 36.1675C115.354 36.1675 115.859 36.035 116.289 35.77C116.724 35.5 117.067 35.1125 117.317 34.6075L118.344 35.005C118.024 35.71 117.552 36.2575 116.927 36.6475C116.307 37.0325 115.604 37.225 114.819 37.225ZM111.722 33.2575V32.335H117.909V33.2575H111.722ZM121.959 37V28.9H123.061V32.4175H127.629V28.9H128.731V37H127.629V33.475H123.061V37H121.959ZM134.826 37V29.92H131.954V28.9H138.801V29.92H135.929V37H134.826ZM145.669 37.225C144.924 37.225 144.294 37.0375 143.779 36.6625C143.264 36.2825 142.874 35.77 142.609 35.125C142.344 34.475 142.211 33.7475 142.211 32.9425C142.211 32.1225 142.344 31.3925 142.609 30.7525C142.879 30.1075 143.274 29.6 143.794 29.23C144.314 28.86 144.954 28.675 145.714 28.675C146.454 28.675 147.089 28.8625 147.619 29.2375C148.149 29.6125 148.554 30.1225 148.834 30.7675C149.119 31.4125 149.261 32.1375 149.261 32.9425C149.261 33.7525 149.119 34.48 148.834 35.125C148.549 35.77 148.139 36.2825 147.604 36.6625C147.069 37.0375 146.424 37.225 145.669 37.225ZM142.024 40.6V28.9H143.014V34.9975H143.134V40.6H142.024ZM145.556 36.1975C146.121 36.1975 146.591 36.055 146.966 35.77C147.341 35.485 147.621 35.0975 147.806 34.6075C147.996 34.1125 148.091 33.5575 148.091 32.9425C148.091 32.3325 147.999 31.7825 147.814 31.2925C147.629 30.8025 147.346 30.415 146.966 30.13C146.591 29.845 146.114 29.7025 145.534 29.7025C144.969 29.7025 144.499 29.84 144.124 30.115C143.754 30.39 143.476 30.7725 143.291 31.2625C143.106 31.7475 143.014 32.3075 143.014 32.9425C143.014 33.5675 143.106 34.1275 143.291 34.6225C143.476 35.1125 143.756 35.4975 144.131 35.7775C144.506 36.0575 144.981 36.1975 145.556 36.1975Z" fill="#9999A9"/>
</svg>
