<svg width="24" height="25" viewBox="0 0 24 25" fill="none" xmlns="http://www.w3.org/2000/svg">
<g id="&#208;&#152;&#208;&#186;&#208;&#190;&#208;&#189;&#208;&#186;&#208;&#184; &#209;&#128;&#208;&#181;&#209;&#129;&#209;&#131;&#209;&#128;&#209;&#129;&#208;&#190;&#208;&#178;" clip-path="url(#clip0_236_90)">
<path id="path2995-1-0" d="M24 12.5386C24 19.1686 18.63 24.5386 12 24.5386C5.37 24.5386 0 19.1686 0 12.5386C0 5.90857 5.37 0.538574 12 0.538574C18.63 0.538574 24 5.90857 24 12.5386Z" fill="url(#paint0_linear_236_90)"/>
<path id="path2993" d="M9.79921 18.0388C9.40921 18.0388 9.47921 17.8888 9.33921 17.5188L8.19922 13.7588L15.2792 9.33887L16.1092 9.55887L15.4192 11.4389L9.79921 18.0388Z" fill="#C8DAEA"/>
<path id="path2989" d="M9.80078 18.0387C10.1008 18.0387 10.2308 17.8987 10.4008 17.7387C10.6608 17.4887 14.0009 14.2388 14.0009 14.2388L11.9508 13.7388L10.0508 14.9388L9.80078 17.9387V18.0387Z" fill="#A9C9DD"/>
<path id="path2991" d="M10.001 14.9787L14.841 18.5487C15.391 18.8487 15.791 18.6987 15.931 18.0387L17.901 8.75863C18.101 7.94862 17.591 7.58862 17.061 7.82862L5.50092 12.2887C4.71091 12.6087 4.72091 13.0487 5.36092 13.2387L8.33094 14.1687L15.201 9.83864C15.521 9.63864 15.821 9.74864 15.581 9.96864L10.001 14.9787Z" fill="url(#paint1_linear_236_90)"/>
</g>
<defs>
<linearGradient id="paint0_linear_236_90" x1="15.517" y1="4.33157" x2="9.517" y2="18.3314" gradientUnits="userSpaceOnUse">
<stop stop-color="#37AEE2"/>
<stop offset="1" stop-color="#1E96C8"/>
</linearGradient>
<linearGradient id="paint1_linear_236_90" x1="12.9001" y1="12.9142" x2="15.4001" y2="16.9142" gradientUnits="userSpaceOnUse">
<stop stop-color="#EFF7FC"/>
<stop offset="1" stop-color="white"/>
</linearGradient>
<clipPath id="clip0_236_90">
<rect width="24" height="24" fill="white" transform="translate(0 0.538574)"/>
</clipPath>
</defs>
</svg>
