<svg width="24" height="25" viewBox="0 0 24 25" fill="none" xmlns="http://www.w3.org/2000/svg">
<g id="&#208;&#152;&#208;&#186;&#208;&#190;&#208;&#189;&#208;&#186;&#208;&#184; &#209;&#128;&#208;&#181;&#209;&#129;&#209;&#131;&#209;&#128;&#209;&#129;&#208;&#190;&#208;&#178;">
<path id="Vector" d="M11.9991 1.49854C5.9117 1.49854 0.959056 6.45117 0.959056 12.5385C0.959056 14.4393 1.4501 16.3085 2.3813 17.9577L0.976816 22.9689C0.930736 23.1336 0.975376 23.3102 1.09442 23.4326C1.1861 23.5272 1.3109 23.5785 1.43906 23.5785C1.47746 23.5785 1.51634 23.5737 1.55426 23.5646L6.78434 22.2691C8.3813 23.1264 10.1799 23.5785 11.9991 23.5785C18.0864 23.5785 23.0391 18.6259 23.0391 12.5385C23.0391 6.45117 18.0864 1.49854 11.9991 1.49854ZM17.5527 16.4342C17.3165 17.088 16.1837 17.6846 15.6394 17.7648C15.1507 17.8363 14.5325 17.867 13.8538 17.6539C13.4424 17.5243 12.9144 17.3525 12.2381 17.064C9.39505 15.8515 7.53842 13.0248 7.39634 12.8381C7.25474 12.6513 6.23906 11.3208 6.23906 9.94366C6.23906 8.56653 6.97106 7.88925 7.23122 7.60893C7.49138 7.32861 7.7981 7.25853 7.98722 7.25853C8.17634 7.25853 8.36498 7.26093 8.53058 7.26861C8.70482 7.27726 8.93858 7.20286 9.1685 7.74909C9.40466 8.30974 9.97154 9.68685 10.0416 9.82749C10.1127 9.96765 10.1597 10.1313 10.0656 10.3181C9.97154 10.5048 9.9245 10.6214 9.78242 10.7851C9.64034 10.9488 9.48482 11.1499 9.35714 11.2757C9.21506 11.4153 9.0677 11.5665 9.23282 11.8469C9.39793 12.1272 9.96673 13.0435 10.8096 13.7856C11.892 14.7389 12.8055 15.0345 13.0887 15.1747C13.3719 15.3149 13.5375 15.2913 13.7026 15.1046C13.8677 14.9174 14.4111 14.2872 14.5997 14.0073C14.7883 13.7275 14.9775 13.7736 15.2376 13.8672C15.4978 13.9603 16.8912 14.6371 17.1744 14.7773C17.4576 14.9174 17.6467 14.9875 17.7178 15.1041C17.7888 15.2203 17.7888 15.7809 17.5527 16.4342Z" fill="#06C645"/>
</g>
</svg>
